<?xml version="1.0" encoding="UTF-8"?>
<svg version="1.1" xmlns="http://www.w3.org/2000/svg" width="1328" height="1328">
<path d="M0 0 C438.24 0 876.48 0 1328 0 C1328 438.24 1328 876.48 1328 1328 C889.76 1328 451.52 1328 0 1328 C0 889.76 0 451.52 0 0 Z " fill="transparent" transform="translate(0,0)"/>
<path d="M0 0 C0.71710144 0.10223877 1.43420288 0.20447754 2.17303467 0.30981445 C28.80606042 4.22205394 54.87106681 12.44408613 79.25 23.75 C80.21631348 24.19279297 81.18262695 24.63558594 82.17822266 25.09179688 C93.63436725 30.35907471 104.74068232 35.74862009 115.25 42.75 C116.23613281 43.38292969 117.22226562 44.01585937 118.23828125 44.66796875 C125.8929457 49.64201141 133.08721509 55.10467772 140.25 60.75 C141.13816406 61.44222656 142.02632812 62.13445312 142.94140625 62.84765625 C151.92439948 69.91877612 160.2517719 77.58927968 168.25 85.75 C169.4875 86.9875 169.4875 86.9875 170.75 88.25 C171.9875 89.4875 171.9875 89.4875 173.25 90.75 C174.12398437 91.58917969 174.12398437 91.58917969 175.015625 92.4453125 C209.70567636 126.17933883 232.77130365 174.52882708 245.25 220.75 C245.45866699 221.49282227 245.66733398 222.23564453 245.88232422 223.00097656 C255.32935456 256.97023781 254.82475708 291.62888739 254.71429092 326.5756975 C254.69639096 332.8915697 254.70198612 339.20745073 254.70472172 345.52334072 C254.70965011 358.33936242 254.6966843 371.15530116 254.67230225 383.97129822 C254.63939345 401.30019057 254.63187628 418.62894194 254.62841797 435.95788574 C254.6074772 477.57610724 254.55163222 519.19430526 254.5 560.8125 C254.4175 653.851875 254.335 746.89125 254.25 842.75 C58.89 842.75 -136.47 842.75 -337.75 842.75 C-337.811875 749.9375 -337.87375 657.125 -337.9375 561.5 C-337.96481201 532.20573242 -337.99212402 502.91146484 -338.02026367 472.72949219 C-338.03381348 436.92822266 -338.03381348 436.92822266 -338.03633118 420.16241455 C-338.03930695 407.69678086 -338.05221234 395.23119642 -338.07002028 382.7655765 C-338.08796883 370.02807148 -338.09448942 357.29059721 -338.09033485 344.55308004 C-338.08838235 337.65151574 -338.09128918 330.75004882 -338.10764539 323.84850073 C-338.22740028 270.77305575 -338.22740028 270.77305575 -334.75 248.75 C-334.63296105 247.97744511 -334.5159221 247.20489022 -334.39533651 246.40892458 C-333.77781535 242.36656127 -333.04976005 238.37235398 -332.1875 234.375 C-331.93846924 233.2005835 -331.68943848 232.02616699 -331.43286133 230.81616211 C-325.04291504 202.20443402 -314.06655264 174.28674982 -299.75 148.75 C-299.24082031 147.83605469 -298.73164063 146.92210937 -298.20703125 145.98046875 C-288.77678419 129.74716955 -277.79998709 114.05066565 -265.05078125 100.26171875 C-263.1597014 98.19726316 -261.32450713 96.10366051 -259.49609375 93.984375 C-249.88421163 82.97383997 -239.35791228 72.63676964 -227.75 63.75 C-226.81929688 63.00234375 -225.88859375 62.2546875 -224.9296875 61.484375 C-161.65892611 11.32085574 -80.02726934 -11.45733158 0 0 Z " fill="#9D66C5" transform="translate(705.75,236.25)"/>
<path d="M0 0 C165.66 0 331.32 0 502 0 C502 130.02 502 260.04 502 394 C336.34 394 170.68 394 0 394 C0 263.98 0 133.96 0 0 Z " fill="#9D66C6" transform="translate(413,639)"/>
<path d="M0 0 C0.71710144 0.10223877 1.43420288 0.20447754 2.17303467 0.30981445 C28.80606042 4.22205394 54.87106681 12.44408613 79.25 23.75 C80.21631348 24.19279297 81.18262695 24.63558594 82.17822266 25.09179688 C93.63436725 30.35907471 104.74068232 35.74862009 115.25 42.75 C116.23613281 43.38292969 117.22226562 44.01585937 118.23828125 44.66796875 C125.8929457 49.64201141 133.08721509 55.10467772 140.25 60.75 C141.13816406 61.44222656 142.02632812 62.13445312 142.94140625 62.84765625 C151.92439948 69.91877612 160.2517719 77.58927968 168.25 85.75 C169.4875 86.9875 169.4875 86.9875 170.75 88.25 C171.9875 89.4875 171.9875 89.4875 173.25 90.75 C174.12398437 91.58917969 174.12398437 91.58917969 175.015625 92.4453125 C209.70567636 126.17933883 232.77130365 174.52882708 245.25 220.75 C245.45866699 221.49282227 245.66733398 222.23564453 245.88232422 223.00097656 C255.32935456 256.97023781 254.82475708 291.62888739 254.71429092 326.5756975 C254.69639096 332.8915697 254.70198612 339.20745073 254.70472172 345.52334072 C254.70965011 358.33936242 254.6966843 371.15530116 254.67230225 383.97129822 C254.63939345 401.30019057 254.63187628 418.62894194 254.62841797 435.95788574 C254.6074772 477.57610724 254.55163222 519.19430526 254.5 560.8125 C254.4175 653.851875 254.335 746.89125 254.25 842.75 C58.89 842.75 -136.47 842.75 -337.75 842.75 C-337.811875 749.9375 -337.87375 657.125 -337.9375 561.5 C-337.96481201 532.20573242 -337.99212402 502.91146484 -338.02026367 472.72949219 C-338.03381348 436.92822266 -338.03381348 436.92822266 -338.03633118 420.16241455 C-338.03930695 407.69678086 -338.05221234 395.23119642 -338.07002028 382.7655765 C-338.08796883 370.02807148 -338.09448942 357.29059721 -338.09033485 344.55308004 C-338.08838235 337.65151574 -338.09128918 330.75004882 -338.10764539 323.84850073 C-338.22740028 270.77305575 -338.22740028 270.77305575 -334.75 248.75 C-334.63296105 247.97744511 -334.5159221 247.20489022 -334.39533651 246.40892458 C-333.77781535 242.36656127 -333.04976005 238.37235398 -332.1875 234.375 C-331.93846924 233.2005835 -331.68943848 232.02616699 -331.43286133 230.81616211 C-325.04291504 202.20443402 -314.06655264 174.28674982 -299.75 148.75 C-299.24082031 147.83605469 -298.73164063 146.92210937 -298.20703125 145.98046875 C-288.77678419 129.74716955 -277.79998709 114.05066565 -265.05078125 100.26171875 C-263.1597014 98.19726316 -261.32450713 96.10366051 -259.49609375 93.984375 C-249.88421163 82.97383997 -239.35791228 72.63676964 -227.75 63.75 C-226.81929688 63.00234375 -225.88859375 62.2546875 -224.9296875 61.484375 C-161.65892611 11.32085574 -80.02726934 -11.45733158 0 0 Z M-118.75 41.75 C-119.9771875 42.1521875 -121.204375 42.554375 -122.46875 42.96875 C-143.04226544 49.93994118 -162.24432584 58.99611333 -180.68676758 70.46704102 C-182.3529655 71.50311605 -184.03200276 72.51852603 -185.71484375 73.52734375 C-187.85902223 74.81549704 -189.84448661 76.12678489 -191.75 77.75 C-191.75 78.41 -191.75 79.07 -191.75 79.75 C-192.60207031 79.96527344 -193.45414063 80.18054688 -194.33203125 80.40234375 C-198.50505559 82.04770763 -201.14758789 84.33195506 -204.4375 87.3125 C-205.66569566 88.39693406 -206.89487482 89.48025518 -208.125 90.5625 C-208.73214844 91.10003906 -209.33929688 91.63757813 -209.96484375 92.19140625 C-213.40872167 95.19820557 -216.98223681 98.04342004 -220.54296875 100.91015625 C-223.2817727 103.1923286 -223.2817727 103.1923286 -225.75 105.75 C-225.75 106.41 -225.75 107.07 -225.75 107.75 C-226.41 107.75 -227.07 107.75 -227.75 107.75 C-227.75 108.41 -227.75 109.07 -227.75 109.75 C-228.31332031 109.97816406 -228.87664062 110.20632813 -229.45703125 110.44140625 C-232.37731794 112.10800939 -234.20735763 114.17720751 -236.4375 116.6875 C-237.22511719 117.56277344 -238.01273437 118.43804687 -238.82421875 119.33984375 C-240.91640298 121.67396121 -240.91640298 121.67396121 -241.75 124.75 C-242.41 124.75 -243.07 124.75 -243.75 124.75 C-245.04963495 126.08226826 -245.04963495 126.08226826 -246.32421875 127.86328125 C-246.82348877 128.52884033 -247.32275879 129.19439941 -247.8371582 129.88012695 C-248.365271 130.60031006 -248.89338379 131.32049316 -249.4375 132.0625 C-249.97914795 132.79364014 -250.5207959 133.52478027 -251.07885742 134.27807617 C-255.24115495 139.94465355 -259.07106325 145.75911297 -262.75 151.75 C-263.29785156 152.58144531 -263.84570312 153.41289062 -264.41015625 154.26953125 C-275.73641824 171.47822544 -284.34702995 190.20756144 -290.75 209.75 C-291.04052246 210.6354248 -291.33104492 211.52084961 -291.63037109 212.43310547 C-301.0691538 241.527181 -305.24004063 270.51182609 -305.11076355 301.08569336 C-305.11207561 303.43691995 -305.11470936 305.78814611 -305.11853105 308.13936996 C-305.12516925 314.52709248 -305.11333638 320.91466116 -305.09819686 327.30236411 C-305.08498685 333.50562997 -305.08908633 339.7088985 -305.09124239 345.91217414 C-305.09516217 358.58254238 -305.0852439 371.25286329 -305.06719017 383.92321777 C-305.04938413 396.45211014 -305.03788129 408.98098276 -305.03463173 421.5098877 C-305.03442551 422.29152387 -305.03421929 423.07316005 -305.03400682 423.87848218 C-305.0329917 427.84869253 -305.03208759 431.8189029 -305.0312262 435.78911328 C-305.02494004 463.84428552 -305.00477028 491.89943206 -304.97631836 519.95458984 C-304.94872529 547.19449732 -304.92749398 574.43439774 -304.91479492 601.67431641 C-304.91440034 602.51530137 -304.91400576 603.35628633 -304.91359923 604.22275569 C-304.90964336 612.66896572 -304.90581597 621.1151758 -304.90208265 629.56138593 C-304.89447585 646.764313 -304.8860121 663.96723961 -304.87702942 681.17016602 C-304.87661755 681.9609723 -304.87620568 682.75177858 -304.87578133 683.56654869 C-304.84822132 736.29437659 -304.80062793 789.02218981 -304.75 841.75 C-300.79 841.75 -296.83 841.75 -292.75 841.75 C-293.08 830.53 -293.41 819.31 -293.75 807.75 C-127.76 807.75 38.23 807.75 209.25 807.75 C209.25 818.97 209.25 830.19 209.25 841.75 C213.21 841.75 217.17 841.75 221.25 841.75 C221.30140695 788.56586368 221.34916197 735.38172521 221.37702942 682.1975708 C221.37744359 681.4091639 221.37785776 680.620757 221.37828448 679.80845898 C221.38726531 662.67010407 221.39557556 645.53174889 221.40319599 628.39339332 C221.40693767 619.98752257 221.41082738 611.5816519 221.41479492 603.17578125 C221.4151872 602.33934091 221.41557948 601.50290057 221.41598364 600.64111355 C221.42874471 573.57880038 221.45126138 546.51650612 221.47889166 519.45420438 C221.50725732 491.62078127 221.52567202 463.78736862 221.53174497 435.9539313 C221.53260931 432.01357106 221.53358621 428.07321085 221.53463173 424.13285065 C221.534834 423.35740792 221.53503627 422.5819652 221.53524467 421.7830242 C221.53877594 409.35109083 221.55265239 396.91918996 221.5704961 384.48726979 C221.58825464 371.95837857 221.59487991 359.42951925 221.59050413 346.9006159 C221.58843739 340.12461682 221.59141781 333.34871784 221.60761642 326.57273483 C221.70779598 282.39498584 218.82850635 243.50608469 204.16210938 201.43994141 C203.07523393 198.23458978 202.12889266 195.01779771 201.25 191.75 C200.59 191.75 199.93 191.75 199.25 191.75 C198.92 190.595 198.59 189.44 198.25 188.25 C194.42753831 176.8006454 188.16830211 164.62260409 181.25 154.75 C180.59 154.75 179.93 154.75 179.25 154.75 C179.064375 153.96625 178.87875 153.1825 178.6875 152.375 C176.65653039 147.25342447 173.48536384 143.17770698 170.25 138.75 C169.31227269 137.37515501 168.37474032 136.00017702 167.4375 134.625 C166.3546875 133.201875 166.3546875 133.201875 165.25 131.75 C164.59 131.75 163.93 131.75 163.25 131.75 C162.940625 130.7290625 162.940625 130.7290625 162.625 129.6875 C160.82104973 125.83360625 158.3489655 122.67212236 155.25 119.75 C154.59 119.75 153.93 119.75 153.25 119.75 C152.98445313 119.16863281 152.71890625 118.58726562 152.4453125 117.98828125 C149.16751315 111.85044129 143.69575136 107.06702952 138.44140625 102.625 C134.98998358 99.67191108 131.68207341 96.56085445 128.3515625 93.47265625 C126.44510178 91.53868598 126.44510178 91.53868598 124.25 91.75 C124.25 91.09 124.25 90.43 124.25 89.75 C122.59151823 88.73648336 120.92334039 87.73879205 119.25 86.75 C117.91666667 85.41666667 116.58333333 84.08333333 115.25 82.75 C96.33937363 67.94332914 96.33937363 67.94332914 75.25 59.75 C75.25 59.09 75.25 58.43 75.25 57.75 C72.75117273 56.64311656 70.25100271 55.53944889 67.75 54.4375 C66.70585938 53.9744043 66.70585938 53.9744043 65.640625 53.50195312 C56.7592295 49.31573862 56.7592295 49.31573862 47.25 47.75 C47.25 47.09 47.25 46.43 47.25 45.75 C32.80428629 41.43573544 18.4166757 37.22166494 3.58984375 34.40625 C0.99742884 33.89686321 -1.51243153 33.30104154 -4.0625 32.625 C-39.89080999 24.80791418 -84.62527041 30.05677455 -118.75 41.75 Z " fill="#9D67C4" transform="translate(705.75,236.25)"/>
<path d="M0 0 C7.7158629 2.40451651 15.04270686 5.50536053 22.4375 8.75 C23.75460773 9.32455769 25.07183065 9.89885137 26.38916016 10.47290039 C38.39187896 15.70968165 50.36929112 21.00446056 62.34741211 26.29719543 C84.25046659 35.97462971 106.20301283 45.53595209 128.18896484 55.0234375 C135.69634285 58.26448785 143.19807275 61.51733346 150.68359375 64.80859375 C151.37764816 65.11370377 152.07170258 65.41881378 152.78678894 65.73316956 C154.16215794 66.33787272 155.53751917 66.94259355 156.91287231 67.54733276 C157.58099945 67.84108795 158.24912659 68.13484314 158.9375 68.4375 C159.59910126 68.72843536 160.26070251 69.01937073 160.94235229 69.31912231 C170.15766205 73.36732754 179.42533965 77.26041188 188.76025391 81.02563477 C194.88290396 83.50717662 200.85018854 86.19880658 206.8125 89.046875 C213.46701413 92.19227793 220.24332683 95.07708982 226.99536133 98.00537109 C233.43452036 100.8136858 239.75277458 103.78664575 246 107 C244.75580799 110.85569001 243.38686028 114.58730194 241.77734375 118.3046875 C241.10505737 119.86449341 241.10505737 119.86449341 240.41918945 121.45581055 C239.68575317 123.14830933 239.68575317 123.14830933 238.9375 124.875 C237.86642752 127.35774906 236.79597551 129.84075537 235.7265625 132.32421875 C235.2947744 133.32625084 235.2947744 133.32625084 234.85426331 134.348526 C232.36824454 140.12558992 229.91196027 145.91504602 227.4609375 151.70703125 C227.0759761 152.61606201 226.69101471 153.52509277 226.29438782 154.46166992 C224.74714941 158.11547449 223.20000439 161.76930999 221.65719604 165.42498779 C220.57177218 167.99647237 219.48342446 170.56670176 218.39453125 173.13671875 C218.06589081 173.91771439 217.73725037 174.69871002 217.39865112 175.50337219 C215.11364516 180.88635484 215.11364516 180.88635484 214 182 C211.07104699 182.10908893 208.16531694 182.15224885 205.23553467 182.15390015 C204.30463556 182.1582824 203.37373644 182.16266465 202.41462827 182.1671797 C199.26958096 182.18062167 196.1245617 182.1867588 192.97949219 182.19287109 C190.73445507 182.20076825 188.48941924 182.20903695 186.24438477 182.21765137 C178.84522727 182.2439314 171.44606397 182.25919186 164.046875 182.2734375 C161.50107062 182.27879604 158.95526628 182.28417354 156.40946198 182.28956985 C145.81517906 182.31121351 135.22089751 182.33009923 124.62659836 182.34119225 C121.87508897 182.3441219 119.12357961 182.34708355 116.37207031 182.35009766 C115.68820445 182.35084371 115.00433859 182.35158976 114.29974952 182.35235842 C103.24428961 182.36498691 92.18899145 182.39817237 81.133607 182.43989949 C69.77575048 182.48241519 58.41800639 182.50549191 47.06005979 182.51111281 C40.68625253 182.51476172 34.31271877 182.52673334 27.93898773 182.55921555 C21.93401194 182.58937653 15.92947393 182.59557906 9.92443848 182.58383179 C7.72712825 182.58361168 5.52979726 182.59186428 3.33255768 182.60948563 C-8.54061316 182.69947445 -18.23432506 182.49302987 -29 177 C-30.93641583 176.10182554 -32.87380528 175.20574486 -34.8125 174.3125 C-36.37677734 173.57 -36.37677734 173.57 -37.97265625 172.8125 C-41.31470707 171.27042688 -44.70953512 169.88095511 -48.12109375 168.5 C-49.20994873 168.05744873 -50.29880371 167.61489746 -51.4206543 167.15893555 C-53.62283029 166.26834373 -55.82870287 165.38683323 -58.03833008 164.51489258 C-59.0517749 164.10392334 -60.06521973 163.6929541 -61.109375 163.26953125 C-62.02686523 162.90448486 -62.94435547 162.53943848 -63.88964844 162.16333008 C-66 161 -66 161 -67 158 C-66.24658203 155.62182617 -66.24658203 155.62182617 -65.0078125 152.79296875 C-64.55422363 151.74181885 -64.10063477 150.69066895 -63.63330078 149.60766602 C-62.88669189 147.91468384 -62.88669189 147.91468384 -62.125 146.1875 C-61.1029373 143.82605254 -60.08212449 141.46406375 -59.0625 139.1015625 C-58.546875 137.91208008 -58.03125 136.72259766 -57.5 135.49707031 C-54.9383317 129.52484753 -52.50802116 123.49997157 -50.08251953 117.47143555 C-48.34465481 113.18126539 -46.53704368 108.94123101 -44.60546875 104.734375 C-41.93263473 98.90769885 -39.44597874 93.01041939 -36.98129272 87.09313965 C-35.57437089 83.71557528 -34.1615928 80.34045794 -32.75 76.96484375 C-32.45091232 76.24914215 -32.15182465 75.53344055 -31.84367371 74.79605103 C-28.14179909 65.94027997 -24.41414085 57.09537 -20.6875 48.25 C-19.71642134 45.94458454 -18.74538682 43.6391505 -17.77436829 41.33370972 C-17.14420244 39.8377426 -16.51390394 38.34183136 -15.88346863 36.84597778 C-14.20162962 32.85509138 -12.52227999 28.86317828 -10.84619141 24.86987305 C-10.30995903 23.59336884 -10.30995903 23.59336884 -9.76289368 22.29107666 C-9.08026036 20.66590488 -8.39824165 19.04047474 -7.71696472 17.41473389 C-5.25545043 11.55718667 -2.69067086 5.75648332 0 0 Z " fill="#FBE5CE" transform="translate(573,371)"/>
<path d="M0 0 C0.9993457 0.02078613 1.99869141 0.04157227 3.02832031 0.06298828 C12.2327141 0.29318338 20.96967121 1.28494542 29.93554688 3.50244141 C32.3722885 4.08972611 34.81754908 4.62989663 37.265625 5.16796875 C49.69692771 7.91041925 61.92794596 10.92208889 74 15 C74 15.66 74 16.32 74 17 C75.09828125 17.21076172 75.09828125 17.21076172 76.21875 17.42578125 C85.4033611 19.32204225 93.58161397 22.92275661 102 27 C102 27.66 102 28.32 102 29 C102.54269531 29.10957031 103.08539062 29.21914063 103.64453125 29.33203125 C112.11657778 31.73455191 119.87722351 36.94998915 127 42 C128.6870857 43.18808852 130.37459705 44.37557281 132.0625 45.5625 C132.89136719 46.14773438 133.72023438 46.73296875 134.57421875 47.3359375 C136.8027213 48.86466872 139.06321115 50.2892752 141.375 51.6875 C144.32719981 53.49096077 146.63477933 55.45283927 149 58 C149.66 58.33 150.32 58.66 151 59 C151 59.66 151 60.32 151 61 C151.55945313 61.24105469 152.11890625 61.48210937 152.6953125 61.73046875 C155.48153854 63.26525428 157.54264415 65.15089294 159.875 67.3125 C162.59253836 69.81120291 165.28655505 72.27927648 168.1875 74.5625 C172.95803575 78.69696432 177.36667269 83.20409823 180 89 C180.66 89 181.32 89 182 89 C185.6487256 92.44051028 188.53289058 96.15853891 190 101 C190.66 101 191.32 101 192 101 C194.233009 103.47497592 196.06846668 106.28623939 198 109 C198.63164063 109.85207031 199.26328125 110.70414062 199.9140625 111.58203125 C200.54054688 112.44183594 201.16703125 113.30164063 201.8125 114.1875 C202.39644531 114.98542969 202.98039062 115.78335938 203.58203125 116.60546875 C205.06878094 119.11615074 205.6070743 121.12704975 206 124 C206.66 124 207.32 124 208 124 C212.33220465 131.37396537 216.51218032 138.80537396 220.375 146.4375 C220.70822266 147.08654297 221.04144531 147.73558594 221.38476562 148.40429688 C223.4462352 152.53146903 224.85763113 156.5286067 226 161 C226.66 161 227.32 161 228 161 C228.69879559 163.09638676 229.39740045 165.19283722 230.09521484 167.28955078 C230.69397349 169.08324168 231.29581672 170.87590611 231.90087891 172.66748047 C246.25671814 215.31343183 248.45483641 255.15498905 248.34819686 299.76299763 C248.33495467 305.93013626 248.33908848 312.09727795 248.34124239 318.26442647 C248.34515706 330.85648825 248.33526372 343.44850232 248.31719017 356.04055023 C248.29937044 368.48798612 248.28787856 380.93540209 248.28463173 393.38285065 C248.28442551 394.16005283 248.28421929 394.93725501 248.28400682 395.73800877 C248.28299167 399.68586315 248.28208757 403.63371755 248.2812262 407.58157197 C248.27494377 435.46259791 248.25478453 463.34359798 248.22631836 491.22460938 C248.19871535 518.29166528 248.17748894 545.35871407 248.16479492 572.42578125 C248.16440034 573.26175794 248.16400576 574.09773463 248.16359923 574.95904395 C248.15964329 583.3551253 248.1558159 591.7512067 248.15208265 600.14728816 C248.14447631 617.24738275 248.13601256 634.34747688 248.12702942 651.4475708 C248.12661755 652.23361146 248.12620568 653.01965211 248.12578133 653.82951218 C248.09823171 706.21968569 248.0506395 758.60984433 248 811 C244.04 811 240.08 811 236 811 C236 799.78 236 788.56 236 777 C70.01 777 -95.98 777 -267 777 C-266.67 788.22 -266.34 799.44 -266 811 C-269.96 811 -273.92 811 -278 811 C-278.05139492 757.47339541 -278.09915154 703.94678858 -278.12702942 650.42016602 C-278.12744359 649.62697767 -278.12785776 648.83378933 -278.12828448 648.01656498 C-278.13726482 630.77523869 -278.14557514 613.53391214 -278.15319599 596.29258519 C-278.15693775 587.83649554 -278.16082744 579.38040596 -278.16479492 570.92431641 C-278.1651872 570.0828685 -278.16557948 569.2414206 -278.16598364 568.37447427 C-278.17875003 541.13869662 -278.20127072 513.90293774 -278.22889166 486.66717145 C-278.25724227 458.66080322 -278.27566856 430.65444537 -278.28174497 402.64806304 C-278.28260934 398.6853379 -278.28358624 394.72261279 -278.28463173 390.7598877 C-278.284834 389.98002583 -278.28503627 389.20016396 -278.28524467 388.39666991 C-278.28877916 375.88212137 -278.3026644 363.36760506 -278.3204961 350.85306963 C-278.33823306 338.24807353 -278.34488522 325.64310913 -278.34050413 313.03810102 C-278.33843413 306.21804196 -278.34145222 299.39808234 -278.35761642 292.57803917 C-278.37234262 286.31860343 -278.3728708 280.05932381 -278.36269668 273.7998805 C-278.36144144 271.55047464 -278.36513835 269.30105856 -278.37464955 267.05167246 C-278.49518576 236.75189214 -273.37769258 207.776087 -264 179 C-263.72929687 178.15808105 -263.45859375 177.31616211 -263.1796875 176.44873047 C-259.38238702 164.73964799 -254.85847608 153.81982453 -249 143 C-248.6090918 142.26507324 -248.21818359 141.53014648 -247.81542969 140.77294922 C-242.45236105 130.70494865 -236.70537925 121.2397853 -230 112 C-229.10541261 110.74445623 -228.21223497 109.48790705 -227.3203125 108.23046875 C-224.89231233 104.81141256 -222.45540513 101.39945078 -220 98 C-219.45085937 97.20722656 -218.90171875 96.41445313 -218.3359375 95.59765625 C-217.89507812 95.07042969 -217.45421875 94.54320312 -217 94 C-216.34 94 -215.68 94 -215 94 C-214.773125 93.45859375 -214.54625 92.9171875 -214.3125 92.359375 C-212.58704892 89.25767128 -210.38706787 86.87299899 -208 84.25 C-207.54882812 83.74339844 -207.09765625 83.23679687 -206.6328125 82.71484375 C-205.46639188 81.43454183 -204.23716029 80.21208271 -203 79 C-202.34 79 -201.68 79 -201 79 C-201 78.34 -201 77.68 -201 77 C-200.34 77 -199.68 77 -199 77 C-198.64228516 76.13955078 -198.64228516 76.13955078 -198.27734375 75.26171875 C-192.45137094 64.94600543 -177.26224715 54.75136928 -167 49 C-166.34 49 -165.68 49 -165 49 C-164.79375 48.401875 -164.5875 47.80375 -164.375 47.1875 C-162.47957286 44.17204774 -160.18959396 43.54555147 -157 42 C-154.98678193 40.79260459 -152.98726788 39.56214677 -151 38.3125 C-149.84058965 37.59644711 -148.68040902 36.88164019 -147.51953125 36.16796875 C-145.30250471 34.80471907 -143.09274109 33.43196713 -140.88671875 32.05078125 C-121.65401528 20.47358612 -99.58363241 12.84360353 -78 7 C-76.86046875 6.6596875 -75.7209375 6.319375 -74.546875 5.96875 C-50.3371698 -0.83057146 -24.92945808 -0.55950577 0 0 Z M-26.38427734 11.04248047 C-59.8060285 11.66724629 -94.45712865 20.29759336 -124.04150391 35.96337891 C-126.00449056 37.00237683 -127.97587977 38.02379318 -129.94921875 39.04296875 C-136.52870311 42.46608444 -142.9411711 46.06339616 -149.1484375 50.1328125 C-151.3475625 51.5727875 -153.55775811 52.97859797 -155.7890625 54.3671875 C-156.43544678 54.77267822 -157.08183105 55.17816895 -157.74780273 55.59594727 C-159.02287095 56.39565336 -160.30095979 57.19056702 -161.58227539 57.98022461 C-163.08976399 58.93373492 -164.55023469 59.96082516 -166 61 C-166 61.66 -166 62.32 -166 63 C-166.52464844 63.21785156 -167.04929687 63.43570313 -167.58984375 63.66015625 C-170.9242934 65.51382923 -173.69350924 67.94947679 -176.5625 70.4375 C-177.17730225 70.96738525 -177.79210449 71.49727051 -178.42553711 72.04321289 C-184.22991219 77.10110733 -189.63685034 82.47988011 -195 88 C-195.84046875 88.83660156 -196.6809375 89.67320312 -197.546875 90.53515625 C-207.11154639 100.14551875 -215.54794877 110.67806116 -223 122 C-223.82247788 123.20821816 -224.64678835 124.41519027 -225.47265625 125.62109375 C-226.33600177 126.89318555 -227.19928224 128.1653215 -228.0625 129.4375 C-228.49626953 130.06720703 -228.93003906 130.69691406 -229.37695312 131.34570312 C-232.12897631 135.42137825 -234.10435089 139.44248141 -236 144 C-237.12098367 146.17101243 -238.29137865 148.31124741 -239.46386719 150.45483398 C-253.47759538 176.14400884 -264.49998434 207.50092415 -264 237 C-264.33 237.33 -264.66 237.66 -265 238 C-266.07895216 244.49997611 -266.13611857 250.88804545 -266.11352539 257.46484375 C-266.11367142 258.58767258 -266.11381744 259.7105014 -266.1139679 260.86735535 C-266.11327443 264.55742361 -266.1055086 268.24744062 -266.09765625 271.9375 C-266.09579006 274.50439425 -266.0943671 277.07128886 -266.09336853 279.63818359 C-266.08994799 285.6905156 -266.08207642 291.74282663 -266.07201904 297.79515076 C-266.06081217 304.69000303 -266.05533596 311.58485622 -266.05032361 318.47971535 C-266.03989247 332.65315332 -266.02232164 346.82657601 -266 361 C-218.35977254 361.01711079 -170.71954486 361.03303238 -123.07931519 361.04234314 C-122.37472253 361.0424812 -121.67012987 361.04261925 -120.94418592 361.04276149 C-105.63312249 361.04575409 -90.32205903 361.04852432 -75.01099551 361.05106533 C-67.5029358 361.05231271 -59.9948761 361.05360926 -52.48681641 361.05493164 C-51.73965658 361.0550624 -50.99249675 361.05519316 -50.22269571 361.05532788 C-25.98576931 361.0595926 -1.74884523 361.06710642 22.48807976 361.07629722 C47.38545976 361.08572137 72.28283847 361.09188348 97.18022022 361.09391499 C100.69322751 361.09420316 104.2062348 361.0945288 107.7192421 361.09487724 C108.75640269 361.09497838 108.75640269 361.09497838 109.81451602 361.09508156 C120.9646818 361.09626531 132.11484362 361.10090885 143.26500778 361.10683203 C154.46263681 361.11270711 165.66026196 361.11488982 176.85789286 361.11350138 C182.92989417 361.11285793 189.00188379 361.1138763 195.07388306 361.11920547 C200.62402903 361.12404135 206.17415535 361.12433739 211.72430219 361.12089889 C213.74047558 361.12047339 215.75665015 361.12176754 217.77282117 361.12488318 C220.49697841 361.12885075 223.22106311 361.12676109 225.94521904 361.12304783 C226.74213773 361.12567484 227.53905643 361.12830186 228.36012417 361.13100848 C232.3091104 361.20234158 232.3091104 361.20234158 236 360 C236 324.03 236 288.06 236 251 C235.34 251 234.68 251 234 251 C234.33 250.34 234.66 249.68 235 249 C236.2072263 234.47879226 233.35070992 221.06347255 230 207 C229.66181725 205.5158396 229.32447791 204.03148656 228.98828125 202.546875 C225.7502809 188.60496579 221.38012389 174.83133551 215 162 C214.39704503 160.76827341 213.79418769 159.53649902 213.19140625 158.3046875 C211.16314298 154.18484056 209.08982315 150.08891032 207 146 C206.65501465 145.32259766 206.3100293 144.64519531 205.95458984 143.94726562 C200.78770061 133.84685462 200.78770061 133.84685462 194.2265625 124.61328125 C192.87625986 122.83724625 191.94096055 121.01822847 191 119 C190.34 119 189.68 119 189 119 C188.855625 118.38125 188.71125 117.7625 188.5625 117.125 C188.06847775 114.96741678 188.06847775 114.96741678 187 113 C186.34 113 185.68 113 185 113 C184.731875 112.2575 184.46375 111.515 184.1875 110.75 C183.04723249 108.10938051 181.90619694 106.14447156 180 104 C179.34 104 178.68 104 178 104 C177.67 102.68 177.34 101.36 177 100 C176.34 100 175.68 100 175 100 C174.773125 99.46375 174.54625 98.9275 174.3125 98.375 C171.32836805 92.97514218 167.19330047 89.13023429 162.453125 85.296875 C161 84 161 84 160 82 C159.34 82 158.68 82 158 82 C158 81.34 158 80.68 158 80 C157.34 80 156.68 80 156 80 C156 79.34 156 78.68 156 78 C154.06135635 76.1950104 154.06135635 76.1950104 151.5625 74.3125 C150.65628906 73.60738281 149.75007813 72.90226562 148.81640625 72.17578125 C147.88699219 71.45777344 146.95757813 70.73976563 146 70 C144.71416016 68.96939453 144.71416016 68.96939453 143.40234375 67.91796875 C142.60957031 67.28503906 141.81679688 66.65210938 141 66 C140.278125 65.4225 139.55625 64.845 138.8125 64.25 C137.0925523 62.81075568 137.0925523 62.81075568 135 63 C135 62.34 135 61.68 135 61 C133.51363242 59.6393991 133.51363242 59.6393991 131.625 58.375 C130.99851562 57.92898438 130.37203125 57.48296875 129.7265625 57.0234375 C128.04777357 55.83003031 128.04777357 55.83003031 126 56 C126 55.34 126 54.68 126 54 C124.865625 53.46375 123.73125 52.9275 122.5625 52.375 C119.39893275 50.79878604 116.48281779 49.05222356 113.5625 47.0625 C102.03128207 39.23145217 89.25506245 33.48931227 76.25 28.5625 C75.5705835 28.303479 74.89116699 28.04445801 74.19116211 27.77758789 C71.31388643 26.71488927 69.09361556 26 66 26 C66 25.34 66 24.68 66 24 C65.443125 23.89042969 64.88625 23.78085937 64.3125 23.66796875 C63.1678125 23.43013672 63.1678125 23.43013672 62 23.1875 C60.88625 22.96126953 60.88625 22.96126953 59.75 22.73046875 C57.47657533 22.12659032 55.4276844 21.41180855 53.24609375 20.5546875 C48.92876961 18.89811049 44.58199986 17.88019396 40.0625 16.9375 C38.55338542 16.61328125 37.04427083 16.2890625 35.53515625 15.96484375 C34.77992676 15.80725586 34.02469727 15.64966797 33.24658203 15.48730469 C31.79943731 15.17340544 30.3568735 14.83714109 28.92138672 14.47363281 C22.01657414 12.75979674 15.08481585 12.32239913 8 11.875 C6.70707031 11.79080811 5.41414063 11.70661621 4.08203125 11.61987305 C-4.59309059 11.0831162 -13.21007292 10.67801609 -21.90087891 10.93798828 C-23.39509902 10.98213016 -24.88964257 11.01585069 -26.38427734 11.04248047 Z M-266 372 C-266 502.02 -266 632.04 -266 766 C-100.34 766 65.32 766 236 766 C236 635.98 236 505.96 236 372 C70.34 372 -95.32 372 -266 372 Z " fill="#764999" transform="translate(679,267)"/>
<path d="M0 0 C19.47 0 38.94 0 59 0 C58.10453098 3.58187607 56.9730318 6.66772315 55.55859375 10.06640625 C55.06069336 11.26612061 54.56279297 12.46583496 54.04980469 13.7019043 C53.51238735 14.98877686 52.97495212 16.27564196 52.4375 17.5625 C51.89331052 18.87205025 51.34936636 20.18170248 50.80566406 21.49145508 C48.36685332 27.3600564 45.91210743 33.22164883 43.42578125 39.0703125 C42.86709351 40.3860022 42.86709351 40.3860022 42.29711914 41.72827148 C41.61364317 43.33345997 40.92678227 44.93721259 40.23608398 46.53930664 C38.57985519 50.14052754 38.57985519 50.14052754 38 54 C39.09501831 54.46055786 39.09501831 54.46055786 40.2121582 54.93041992 C43.57961931 56.34783597 46.94606259 57.76765444 50.3125 59.1875 C51.46041016 59.67025391 52.60832031 60.15300781 53.79101562 60.65039062 C59.07639507 62.88132983 64.33831451 65.13693271 69.54296875 67.55078125 C70.38688077 67.92664525 71.23079279 68.30250925 72.1002779 68.68976307 C73.94640322 69.5239332 75.7766659 70.39486457 77.58251476 71.31297588 C88.33221069 76.23943744 98.98095466 75.66928185 110.58911133 75.56762695 C112.85700957 75.56621457 115.12491009 75.56701218 117.39280701 75.56983948 C123.51601193 75.57126757 129.638722 75.5419758 135.76181245 75.50696969 C142.17326963 75.47560496 148.58473953 75.47276748 154.9962616 75.46684265 C165.74671554 75.45309332 176.49695436 75.421913 187.24731445 75.37719727 C198.31403714 75.33121386 209.38071067 75.29586513 220.44750977 75.2746582 C221.47290013 75.27268778 221.47290013 75.27268778 222.51900546 75.27067754 C225.94882329 75.26415176 229.37864147 75.25783337 232.80845988 75.25161803 C261.20576391 75.19989021 289.60287224 75.11154265 318 75 C318.64486248 73.49522882 318.64486248 73.49522882 319.30275249 71.96005821 C320.91909366 68.18838115 322.53546424 64.41671669 324.15184307 60.64505577 C324.84742664 59.02196903 325.54300254 57.398879 326.23857021 55.77578545 C330.04925569 46.88364004 333.86047826 37.99172797 337.67578125 29.1015625 C338.59403506 26.96128057 339.51223196 24.82097424 340.43041992 22.68066406 C341.04155591 21.25642796 341.65289803 19.83228029 342.2644043 18.40820312 C343.19375735 16.2437297 344.12234417 14.07892896 345.05078125 11.9140625 C345.32150955 11.28408356 345.59223785 10.65410461 345.87117004 10.0050354 C347.29389178 6.68549363 348.65826925 3.35432688 350 0 C363.2 0 376.4 0 390 0 C390 32.67 390 65.34 390 99 C261.63 99 133.26 99 1 99 C0.39102218 84.99351017 -0.14544953 71.12515502 -0.09765625 57.12890625 C-0.09578138 55.45784041 -0.09436257 53.786774 -0.09336853 52.1157074 C-0.08962725 47.80712246 -0.07987348 43.49857355 -0.06866455 39.19000244 C-0.05642321 33.97240188 -0.05200808 28.75478898 -0.04621124 23.53717804 C-0.0366533 15.6914273 -0.01743932 7.84575492 0 0 Z " fill="#704693" transform="translate(469,477)"/>
<path d="M0 0 C83.49 0 166.98 0 253 0 C253 20.79 253 41.58 253 63 C169.51 63 86.02 63 0 63 C0 42.21 0 21.42 0 0 Z " fill="#6C418F" transform="translate(537,769)"/>
<path d="M0 0 C0.47308594 0.8971875 0.94617188 1.794375 1.43359375 2.71875 C5.08779588 9.62123572 8.81489532 16.46743515 12.6875 23.25 C15.70533067 28.55460635 18.44083026 33.88453349 20.890625 39.48046875 C23.36441325 45.09875545 26.02776968 50.59789058 29.375 55.75 C32.71341786 60.95002782 35.33422551 66.52235369 38.04980469 72.06298828 C42.37246291 80.87490254 46.76379962 89.64759008 51.375 98.3125 C51.70878662 98.9408374 52.04257324 99.5691748 52.38647461 100.21655273 C53.82594919 102.90265894 55.30761066 105.46141599 57 108 C57 109.32 57 110.64 57 112 C55.97261719 112.24234375 54.94523438 112.4846875 53.88671875 112.734375 C46.66677991 114.46876883 39.66447988 116.33523661 32.71875 118.9921875 C25.67078191 121.60479636 18.44697655 123.64965104 11.15356445 125.44628906 C7.21618693 126.45864279 3.32913001 127.63838936 -0.5625 128.8125 C-1.43946533 129.07603271 -2.31643066 129.33956543 -3.2199707 129.61108398 C-9.62204917 131.54903883 -15.95836363 133.63701822 -22.29296875 135.78515625 C-27.0437567 137.34205304 -31.83522576 138.73181243 -36.63842773 140.11645508 C-42.76507909 141.89615835 -48.79762847 143.90398537 -54.828125 145.984375 C-57.55482342 146.85745577 -60.18291613 147.51283512 -63 148 C-64.42049663 143.4166163 -63.47815932 140.87650555 -61.60546875 136.5390625 C-61.34284744 135.92094696 -61.08022614 135.30283142 -60.80964661 134.66598511 C-59.94804285 132.64672282 -59.06799011 130.63608977 -58.1875 128.625 C-57.58153691 127.21468429 -56.97672986 125.80387134 -56.37304688 124.39257812 C-54.86996414 120.88764399 -53.35192799 117.38946844 -51.82659912 113.89416504 C-50.6687076 111.24083819 -49.51637383 108.58510274 -48.36328125 105.9296875 C-47.1758092 103.19930298 -45.98673133 100.46966011 -44.79370117 97.74169922 C-39.7104632 86.09954206 -34.83603353 74.36907062 -29.94091797 62.64697266 C-26.54948111 54.52586579 -23.15231246 46.40715553 -19.75512695 38.28845215 C-18.59198817 35.50799092 -17.42972418 32.72716533 -16.26757812 29.94628906 C-14.50478524 25.72899769 -12.73540554 21.51451116 -10.96368408 17.30096436 C-10.03622511 15.08649379 -9.1184752 12.86822246 -8.20263672 10.64892578 C-7.66525444 9.36091272 -7.12767125 8.07298346 -6.58984375 6.78515625 C-6.13343506 5.68179932 -5.67702637 4.57844238 -5.20678711 3.44165039 C-3.79461021 0.58444198 -3.17526488 0 0 0 Z " fill="#FDFBFB" transform="translate(575,374)"/>
<path d="M0 0 C3.0513429 2.96159752 4.59066465 6.1189528 6.1484375 10.0390625 C7.14293938 12.32915399 8.32941079 14.45447456 9.5625 16.625 C11.30505233 19.69397276 12.71995654 22.70845967 14 26 C14.97236487 27.6829392 15.96564444 29.35443434 17 31 C25.15473078 30.30158518 32.62879994 27.84505029 40.41992188 25.43945312 C41.45052734 25.12814453 42.48113281 24.81683594 43.54296875 24.49609375 C44.47133545 24.20919678 45.39970215 23.9222998 46.35620117 23.62670898 C49.00538691 22.99872304 51.28880828 22.88257532 54 23 C54.45890625 23.99 54.9178125 24.98 55.390625 26 C56.01030551 27.333385 56.63010486 28.66671477 57.25 30 C57.72771851 31.03024292 57.72771851 31.03024292 58.21508789 32.08129883 C59.88164985 35.66048945 61.59464703 39.19472813 63.4375 42.6875 C65 46 65 46 65 50 C65.66 50 66.32 50 67 50 C67.6690776 51.31127261 68.33519806 52.6240545 69 53.9375 C69.556875 55.03384766 69.556875 55.03384766 70.125 56.15234375 C71 58 71 58 71 59 C51.53663345 59.11707443 32.07333887 59.20510584 12.60969257 59.25906086 C3.57129928 59.28478489 -5.46687456 59.31982371 -14.50512695 59.37719727 C-22.38771067 59.42721072 -30.27013535 59.45933312 -38.15287334 59.47044247 C-42.32242428 59.47693106 -46.49152048 59.49205808 -50.66092491 59.52865028 C-54.59511129 59.56289444 -58.5286609 59.57299659 -62.46298218 59.56553841 C-63.89757068 59.5669004 -65.33218317 59.57666278 -66.76664162 59.59602737 C-76.55968044 59.72160942 -84.12242775 58.12408969 -93 54 C-94.0672314 53.51249928 -95.1344628 53.02499857 -96.23403454 52.52272511 C-98.26209187 51.58604388 -100.28525622 50.63873016 -102.3046875 49.68359375 C-105.17607348 48.34981474 -108.08183335 47.11933389 -111.0078125 45.91015625 C-111.87390137 45.55219971 -112.73999023 45.19424316 -113.63232422 44.82543945 C-115.35816261 44.11640027 -117.08631943 43.41297457 -118.81689453 42.71557617 C-119.60435059 42.39177979 -120.39180664 42.0679834 -121.203125 41.734375 C-121.91114258 41.44788086 -122.61916016 41.16138672 -123.34863281 40.86621094 C-125 40 -125 40 -126 38 C-122.45598536 35.6718152 -119.38083756 34.4179639 -115.25 33.5 C-110.73970903 32.44298702 -106.39788099 31.20355262 -102.0234375 29.6875 C-99.04866188 28.67676543 -96.02248428 27.85542008 -93 27 C-92.12174561 26.70665771 -91.24349121 26.41331543 -90.33862305 26.11108398 C-86.33266453 24.77791271 -82.30405787 23.52866218 -78.26953125 22.28515625 C-77.43846359 22.02874863 -76.60739594 21.772341 -75.75114441 21.50816345 C-73.99721839 20.96738184 -72.24317241 20.42698916 -70.48901367 19.88696289 C-67.83782629 19.07030141 -65.18745825 18.25101859 -62.53710938 17.43164062 C-46.86803049 12.5998693 -46.86803049 12.5998693 -39.19799805 10.63842773 C-36.72173271 9.91917484 -34.38790847 8.97009537 -32 8 C-29.67081401 7.31898493 -27.33672868 6.65466632 -25 6 C-23.37108624 5.50165652 -21.74356598 4.99874382 -20.1171875 4.4921875 C-18.83134766 4.09580078 -18.83134766 4.09580078 -17.51953125 3.69140625 C-15.74716886 3.14425154 -13.97633809 2.59211228 -12.20703125 2.03515625 C-10.92505859 1.64263672 -10.92505859 1.64263672 -9.6171875 1.2421875 C-8.46645752 0.88423096 -8.46645752 0.88423096 -7.29248047 0.51904297 C-4.74758153 -0.05715034 -2.60039342 -0.22911194 0 0 Z " fill="#FCFBFB" transform="translate(637,494)"/>
<path d="M0 0 C-2.20550943 7.09400973 -4.99055367 13.82311832 -7.98400879 20.61904907 C-9.42574381 23.89226764 -10.85524925 27.17081972 -12.28515625 30.44921875 C-12.58449066 31.13485397 -12.88382507 31.8204892 -13.19223022 32.52690125 C-15.47242865 37.76058979 -17.71176371 43.01082262 -19.93359375 48.26953125 C-20.25427322 49.02833588 -20.5749527 49.7871405 -20.90534973 50.56893921 C-22.16671088 53.55593378 -23.42688642 56.5434125 -24.68276978 59.53271484 C-25.55219705 61.60206077 -26.42436681 63.67023293 -27.296875 65.73828125 C-27.79541992 66.92462158 -28.29396484 68.11096191 -28.80761719 69.33325195 C-30 72 -30 72 -31 73 C-33.17805719 73.09429342 -35.3592128 73.11742538 -37.53930664 73.11352539 C-38.22220261 73.11367142 -38.90509857 73.11381744 -39.60868835 73.1139679 C-41.87587614 73.11326876 -44.14298274 73.1054764 -46.41015625 73.09765625 C-47.97814387 73.09579207 -49.54613207 73.09436817 -51.11412048 73.09336853 C-55.24876503 73.08954334 -59.38337466 73.07971306 -63.51800537 73.06866455 C-67.73400398 73.05845044 -71.95000822 73.05387091 -76.16601562 73.04882812 C-84.44402647 73.03809079 -92.7220089 73.02101436 -101 73 C-101.50367757 71.54293274 -102.00282556 70.08429904 -102.5 68.625 C-102.7784375 67.81289063 -103.056875 67.00078125 -103.34375 66.1640625 C-104 64 -104 64 -104 62 C-104.66 62 -105.32 62 -106 62 C-106.495 60.824375 -106.99 59.64875 -107.5 58.4375 C-108.88223113 55.28741528 -110.3864352 52.24839549 -112.046875 49.23828125 C-112.58924805 48.25226929 -112.58924805 48.25226929 -113.14257812 47.24633789 C-113.87176337 45.93184323 -114.60985213 44.62224208 -115.35742188 43.31811523 C-117.3998439 39.63142765 -118.1838566 37.17515124 -118 33 C-117.16629883 32.76418213 -116.33259766 32.52836426 -115.47363281 32.28540039 C-106.5417641 29.74768429 -97.64059149 27.11662474 -88.75 24.4375 C-87.45315165 24.04743741 -86.1562767 23.65746327 -84.859375 23.26757812 C-83.60125 22.88923828 -82.343125 22.51089844 -81.046875 22.12109375 C-79.23908569 21.57751221 -79.23908569 21.57751221 -77.39477539 21.02294922 C-75.26556891 20.38135446 -73.13704117 19.7374982 -71.00952148 19.09033203 C-70.13368408 18.82462402 -69.25784668 18.55891602 -68.35546875 18.28515625 C-67.24014771 17.9449646 -67.24014771 17.9449646 -66.10229492 17.59790039 C-63.20901001 16.77503955 -60.28348321 16.15485907 -57.34375 15.5234375 C-51.07769382 14.12401829 -44.9884962 12.48815866 -39.0625 10 C-34.42392784 8.06358019 -29.76004074 6.86756382 -24.875 5.71484375 C-22.33861803 5.08419443 -19.90665427 4.35097638 -17.4375 3.5 C-14.00415766 2.31782352 -10.55435485 1.24767281 -7.0625 0.25 C-6.14597656 -0.01296875 -5.22945312 -0.2759375 -4.28515625 -0.546875 C-2 -1 -2 -1 0 0 Z " fill="#FCFBFB" transform="translate(818,480)"/>
<path d="M0 0 C12.87 0 25.74 0 39 0 C39 24.75 39 49.5 39 75 C15.9 75 -7.2 75 -31 75 C-30.21103938 70.2662363 -29.46239624 67.32023978 -27.5859375 63.08203125 C-26.82567261 61.34832275 -26.82567261 61.34832275 -26.05004883 59.57958984 C-25.49172866 58.32388014 -24.93337824 57.06818388 -24.375 55.8125 C-23.50146621 53.82779477 -22.63044103 51.84200044 -21.75953674 49.85614014 C-21.14525812 48.45578101 -20.53020123 47.05576305 -19.91441345 45.65606689 C-15.81044323 36.31855718 -11.82181564 26.93139977 -7.82073975 17.54946899 C-6.88804233 15.36326313 -5.95388324 13.17768661 -5.01953125 10.9921875 C-4.74298203 10.34242447 -4.4664328 9.69266144 -4.1815033 9.02320862 C-2.87095555 5.95953187 -1.49168789 2.98337578 0 0 Z " fill="#331D41" transform="translate(819,478)"/>
<path d="M0 0 C19.47 0 38.94 0 59 0 C58.10453098 3.58187607 56.9730318 6.66772315 55.55859375 10.06640625 C55.06069336 11.26612061 54.56279297 12.46583496 54.04980469 13.7019043 C53.51238735 14.98877686 52.97495212 16.27564196 52.4375 17.5625 C51.89331052 18.87205025 51.34936636 20.18170248 50.80566406 21.49145508 C48.36685332 27.3600564 45.91210743 33.22164883 43.42578125 39.0703125 C42.86709351 40.3860022 42.86709351 40.3860022 42.29711914 41.72827148 C41.61364317 43.33345997 40.92678227 44.93721259 40.23608398 46.53930664 C38.57985519 50.14052754 38.57985519 50.14052754 38 54 C39.09501831 54.46055786 39.09501831 54.46055786 40.2121582 54.93041992 C43.57961931 56.34783597 46.94606259 57.76765444 50.3125 59.1875 C51.46041016 59.67025391 52.60832031 60.15300781 53.79101562 60.65039062 C60.08338912 63.3063783 66.33537996 66.02355983 72.53173828 68.89697266 C75.97238634 70.43454416 79.47731979 71.77947224 83.00390625 73.10546875 C85 74 85 74 87 76 C58.29 76 29.58 76 0 76 C0 50.92 0 25.84 0 0 Z " fill="#341E43" transform="translate(469,477)"/>
<path d="M0 0 C5.3366497 4.26931976 9.7998129 8.84953704 11.9375 15.4375 C12.94140996 24.88989895 11.72660257 32.1797835 5.875 39.6875 C0.27344629 45.64061566 -6.14249113 47.61285904 -14.1875 47.9375 C-21.17934043 47.67721326 -25.58212486 45.57964216 -30.8125 41.0625 C-36.6084083 34.30060698 -38.44200222 29.42278416 -38.3359375 20.640625 C-37.68049406 12.96257323 -34.63716844 6.95526084 -28.88671875 1.84375 C-21.02035698 -4.22025479 -8.56345929 -5.43757856 0 0 Z " fill="#FBE4CE" transform="translate(516.0625,936.5625)"/>
<path d="M0 0 C1.36854265 4.10562795 0.18284536 7.34074261 -0.75 11.4375 C-7.00119743 41.46086804 -6.45005822 71.57898407 -6.43273985 102.10116959 C-6.43069137 108.31237562 -6.44572925 114.52355439 -6.45882157 120.73474317 C-6.48507863 133.41693907 -6.49775395 146.09911314 -6.50238609 158.78133392 C-6.50701059 171.3180966 -6.51785742 183.85482915 -6.53681374 196.39157867 C-6.53799386 197.17432624 -6.53917399 197.95707381 -6.54038988 198.763541 C-6.54641623 202.73955572 -6.5525518 206.71557025 -6.55872939 210.69158474 C-6.60216286 238.77224647 -6.63194805 266.85290745 -6.65356445 294.93359375 C-6.67458152 322.19467245 -6.70186933 349.45573325 -6.73754883 376.71679688 C-6.73864831 377.55874979 -6.73974778 378.4007027 -6.74088058 379.26816934 C-6.75192997 387.7242645 -6.76310579 396.18035948 -6.7743742 404.63645435 C-6.79732146 421.85881125 -6.81942546 439.08116919 -6.84101868 456.30352783 C-6.8420123 457.09519044 -6.84300591 457.88685306 -6.84402964 458.70250544 C-6.91015967 511.46832243 -6.95657806 564.23416003 -7 617 C-7.33 617 -7.66 617 -8 617 C-8.06854013 562.57648891 -8.13221382 508.15297373 -8.16937256 453.72943115 C-8.16992479 452.92269766 -8.17047702 452.11596417 -8.17104598 451.28478422 C-8.18302031 433.74819795 -8.19410066 416.21161122 -8.20426132 398.67502381 C-8.20925024 390.07387645 -8.21443651 381.47272921 -8.21972656 372.87158203 C-8.2202496 372.01570874 -8.22077263 371.15983544 -8.22131152 370.27802659 C-8.23832737 342.58518244 -8.26835042 314.89237114 -8.30518888 287.19954685 C-8.34300668 258.71848741 -8.36756199 230.23744612 -8.37565996 201.756362 C-8.37681242 197.72464686 -8.37811496 193.69293179 -8.37950897 189.66121674 C-8.37977866 188.86779305 -8.38004836 188.07436937 -8.38032622 187.25690255 C-8.38503525 174.53485 -8.40353897 161.81285393 -8.42732814 149.09082432 C-8.45100178 136.27067429 -8.45984097 123.45057969 -8.45400551 110.63040861 C-8.45124918 103.69641688 -8.45480383 96.76257646 -8.4768219 89.82861519 C-8.69095207 17.38190414 -8.69095207 17.38190414 0 0 Z " fill="#F3C4E7" transform="translate(375,462)"/>
</svg>
